<?xml version="1.0" standalone="no"?>
<!DOCTYPE svg PUBLIC "-//W3C//DTD SVG 20010904//EN"
 "http://www.w3.org/TR/2001/REC-SVG-20010904/DTD/svg10.dtd">
<svg version="1.0" xmlns="http://www.w3.org/2000/svg"
 width="1200.000000pt" height="1200.000000pt" viewBox="0 0 1200.000000 1200.000000"
 preserveAspectRatio="xMidYMid meet">

<g transform="translate(0.000000,1200.000000) scale(0.100000,-0.100000)"
fill="#000000" stroke="none">
<path d="M1170 10451 c-310 -850 -700 -1918 -865 -2372 l-301 -826 565 -191
c812 -275 1550 -526 1669 -568 l102 -36 0 -722 1 -721 -220 -730 c-121 -401
-265 -881 -320 -1065 -139 -466 -834 -2911 -829 -2916 3 -2 823 294 1824 658
1000 363 1826 661 1834 662 8 0 581 -364 1273 -808 985 -633 1262 -807 1280
-802 29 7 4578 1834 4585 1841 5 5 77 2205 186 5650 20 616 37 1159 38 1206
l3 86 -1825 1473 c-1004 810 -1843 1488 -1866 1506 l-41 34 -334 -403 c-183
-221 -513 -617 -731 -880 l-397 -478 -650 743 -649 742 -1848 227 c-1016 125
-1864 229 -1884 232 l-37 5 -563 -1547z m3870 -2006 l0 -285 -215 0 -215 0 0
-970 0 -970 215 0 215 0 0 -280 0 -280 -770 0 -770 0 0 280 0 280 220 0 220 0
0 970 0 970 -220 0 -220 0 0 285 0 285 770 0 770 0 0 -285z m2548 -857 l-3
-1143 -28 -100 c-71 -262 -231 -473 -447 -593 -75 -41 -316 -118 -418 -133
-118 -16 -382 -6 -493 19 -226 53 -426 170 -612 360 l-69 69 212 237 c116 130
214 236 218 236 4 0 32 -25 62 -56 222 -227 485 -302 692 -198 97 49 151 120
185 245 16 58 17 157 20 1132 l4 1067 340 0 340 0 -3 -1142z m-1778 -4148 l0
-230 -1390 0 -1390 0 0 223 c0 123 3 227 7 230 3 4 629 7 1390 7 l1383 0 0
-230z"/>
</g>
</svg>
